HIERARCHY
ROOT root
{
	OFFSET 0.000000 0.000000 0.000000
	CHANNELS 6 Xposition Yposition Zposition Zrotation Yrotation Xrotation
	JOINT lhip
	{
		OFFSET 0.058581 -0.082280 -0.017664
		CHANNELS 3 Zrotation Yrotation Xrotation
		JOINT lknee
		{
			OFFSET 0.043451 -0.386469 0.008037
			CHANNELS 3 Zrotation Yrotation Xrotation
			JOINT lankle
			{
				OFFSET -0.014790 -0.426874 -0.037428
				CHANNELS 3 Zrotation Yrotation Xrotation
				JOINT ltoe
				{
					OFFSET 0.041054 -0.060286 0.122042
					CHANNELS 3 Zrotation Yrotation Xrotation
					End Site
					{
						OFFSET 0.000000 0.000000 0.000000
					}
				}
			}
		}
	}
	JOINT rhip
	{
		OFFSET -0.060310 -0.090513 -0.013543
		CHANNELS 3 Zrotation Yrotation Xrotation
		JOINT rknee
		{
			OFFSET -0.043257 -0.383688 -0.004843
			CHANNELS 3 Zrotation Yrotation Xrotation
			JOINT rankle
			{
				OFFSET 0.019056 -0.420046 -0.034562
				CHANNELS 3 Zrotation Yrotation Xrotation
				JOINT rtoe
				{
					OFFSET -0.034840 -0.062106 0.130323
					CHANNELS 3 Zrotation Yrotation Xrotation
					End Site
					{
						OFFSET 0.000000 0.000000 0.000000
					}
				}
			}
		}
	}
	JOINT lowerback
	{
		OFFSET 0.004439 0.124404 -0.038385
		CHANNELS 3 Zrotation Yrotation Xrotation
		JOINT upperback
		{
			OFFSET 0.004488 0.137956 0.026820
			CHANNELS 3 Zrotation Yrotation Xrotation
			JOINT chest
			{
				OFFSET -0.002265 0.056032 0.002855
				CHANNELS 3 Zrotation Yrotation Xrotation
				JOINT lowerneck
				{
					OFFSET -0.013390 0.211636 -0.033468
					CHANNELS 3 Zrotation Yrotation Xrotation
					JOINT upperneck
					{
						OFFSET 0.010113 0.088937 0.050410
						CHANNELS 3 Zrotation Yrotation Xrotation
						End Site
						{
							OFFSET 0.000000 0.000000 0.000000
						}
					}
				}
				JOINT lclavicle
				{
					OFFSET 0.071702 0.114000 -0.018898
					CHANNELS 3 Zrotation Yrotation Xrotation
					JOINT lshoulder
					{
						OFFSET 0.122921 0.045205 -0.019046
						CHANNELS 3 Zrotation Yrotation Xrotation
						JOINT lelbow
						{
							OFFSET 0.255332 -0.015649 -0.022946
							CHANNELS 3 Zrotation Yrotation Xrotation
							JOINT lwrist
							{
								OFFSET 0.265709 0.012698 -0.007375
								CHANNELS 3 Zrotation Yrotation Xrotation
								End Site
								{
									OFFSET 0.000000 0.000000 0.000000
								}
							}
						}
					}
				}
				JOINT rclavicle
				{
					OFFSET -0.082954 0.112472 -0.023707
					CHANNELS 3 Zrotation Yrotation Xrotation
					JOINT rshoulder
					{
						OFFSET -0.113228 0.046853 -0.008472
						CHANNELS 3 Zrotation Yrotation Xrotation
						JOINT relbow
						{
							OFFSET -0.260127 -0.014369 -0.031269
							CHANNELS 3 Zrotation Yrotation Xrotation
							JOINT rwrist
							{
								OFFSET -0.269108 0.006794 -0.006027
								CHANNELS 3 Zrotation Yrotation Xrotation
								End Site
								{
									OFFSET 0.000000 0.000000 0.000000
								}
							}
						}
					}
				}
			}
		}
	}
}
MOTION
Frames: 11
Frame Time: 0.033333
0.345463 0.801853 1.002788 83.630599 3.262454 85.062450 5.675038 2.151494 9.333656 -3.257993 -14.906554 0.890911 3.087470 8.132374 -16.691940 0.000000 -0.000000 0.000000 0.097782 -2.209951 6.239667 4.862399 6.270140 3.439585 4.254051 -1.812393 -6.603789 0.000000 -0.000000 0.000000 -1.504248 -0.285325 4.174997 1.120926 -3.648129 2.341285 -0.032229 -3.125487 4.760792 5.432031 -11.041697 -7.437018 4.349266 -16.104988 -1.932392 -29.766727 6.311689 0.997280 -55.828563 -5.133029 5.263623 12.786552 -17.909869 -1.752248 3.299102 -3.046062 -7.444087 26.505789 -1.791000 -3.805283 58.560172 1.595217 12.065117 -12.554867 21.792883 -1.026763 2.044906 -0.356861 -4.029246 
0.345894 0.801975 1.002755 84.078794 3.194356 85.005086 5.579190 2.017658 9.278342 -3.227213 -14.901807 1.026197 3.147237 7.909120 -16.769920 0.000000 -0.000000 0.000000 -0.034344 -2.399135 6.522089 4.900472 6.286628 3.198924 4.575661 -2.003469 -6.649283 0.000000 -0.000000 0.000000 -1.469098 -0.273036 4.224401 1.146342 -3.737775 2.469830 -0.136874 -3.213844 4.673303 5.464590 -11.086945 -7.606925 4.187374 -16.313557 -1.435228 -29.688143 6.487943 1.078592 -55.528516 -5.367288 5.177861 13.118298 -18.523799 -2.602502 3.547741 -3.218622 -7.999308 26.588116 -1.880589 -3.911830 58.278435 1.725629 12.015229 -12.369597 21.345380 -1.327870 2.032817 -0.209392 -3.850873 
0.345633 0.801511 1.002743 84.355490 3.157109 84.894174 5.612239 1.976384 9.272070 -3.275540 -15.048004 1.144252 3.071848 7.755880 -16.766896 0.000000 -0.000000 0.000000 -0.055380 -2.592967 6.581411 5.055194 5.656184 3.157900 4.667626 -2.208354 -6.859083 0.000000 -0.000000 0.000000 -1.505523 -0.213588 4.518785 1.131882 -3.733745 2.547269 -0.094979 -3.240264 4.647719 5.547517 -10.966841 -7.536315 4.488989 -16.103049 -1.586587 -29.613510 6.472278 1.127683 -55.272673 -5.649769 4.990727 13.632603 -19.161717 -3.355607 3.832298 -3.195607 -8.174450 26.699499 -1.716719 -4.016098 58.206121 1.752312 11.827017 -12.670994 21.149501 -1.773854 2.062664 -0.319659 -3.732645 
0.345708 0.801002 1.002775 84.559397 3.128894 84.982348 5.627869 1.830715 9.085076 -3.343057 -15.128195 1.239720 3.007480 7.711237 -16.824588 0.000000 -0.000000 0.000000 -0.065495 -2.642487 6.493227 5.022741 5.748830 3.284864 4.652945 -2.140168 -6.815729 0.000000 -0.000000 0.000000 -1.560234 -0.212913 4.568304 1.178839 -3.735037 2.374479 -0.065144 -3.275538 4.726273 5.694670 -10.821201 -7.399428 4.423958 -16.126160 -1.214590 -29.541547 6.741108 0.944198 -55.131675 -5.846459 4.962513 14.016387 -19.895004 -4.019326 4.358067 -3.550545 -8.765306 26.756026 -1.823403 -4.045420 58.011317 2.135500 11.940535 -12.424519 20.874028 -1.855842 1.917271 -0.287188 -3.899303 
0.345583 0.800946 1.002851 84.642515 3.099144 85.027997 5.595294 1.780726 8.983086 -3.342084 -15.150069 1.252063 2.961304 7.728689 -16.782629 0.000000 -0.000000 0.000000 -0.091578 -2.650446 6.404199 5.051945 5.533594 3.273684 4.720169 -2.203192 -6.987562 0.000000 -0.000000 0.000000 -1.574390 -0.196743 4.749250 1.188262 -3.709804 2.176109 -0.037242 -3.271784 4.607515 5.689639 -10.920124 -7.431171 4.283017 -16.344513 -0.819548 -29.430790 6.851474 0.905770 -55.150381 -5.912370 4.914220 14.032042 -20.317398 -4.524245 4.371274 -3.779924 -9.440051 26.772799 -1.840378 -4.007486 57.923364 2.090100 12.018178 -12.430761 21.037016 -1.870824 1.851786 -0.202930 -3.881086 
0.345106 0.800744 1.002907 84.637094 3.064374 85.031651 5.569162 1.711123 8.878478 -3.390156 -15.113899 1.375433 2.932171 7.719788 -16.860006 0.000000 -0.000000 0.000000 -0.076345 -2.469073 6.362586 4.936531 5.905859 3.480069 4.659219 -2.170561 -6.799345 0.000000 -0.000000 0.000000 -1.603825 -0.212434 4.829737 1.236097 -3.581040 2.205789 -0.070391 -3.271002 4.695548 5.730810 -10.824188 -7.591350 4.183389 -16.447688 -0.582432 -29.484490 6.790113 0.836066 -55.006349 -6.180481 4.973412 14.571958 -20.928811 -5.018622 5.175559 -4.083407 -9.550851 26.874188 -1.510887 -3.853562 57.868315 2.404189 12.239716 -12.473100 20.995046 -2.154170 1.566476 -0.093361 -4.037984 
0.344799 0.800824 1.002675 84.719335 3.063632 85.223947 5.546216 1.456070 8.643599 -3.411404 -15.050883 1.381402 3.090073 7.785865 -16.798297 0.000000 -0.000000 0.000000 -0.025982 -2.173377 6.293842 4.770217 6.451465 3.534392 4.518044 -2.216416 -6.604513 0.000000 -0.000000 0.000000 -1.580240 -0.252261 4.662120 1.274494 -3.551227 2.255533 -0.089058 -3.195327 4.739575 5.753647 -10.599155 -7.252111 4.307914 -16.134278 -0.742232 -29.395497 6.738476 0.867917 -55.171860 -6.324514 5.069570 14.616548 -21.549123 -5.187117 4.624364 -3.948544 -10.267933 26.890857 -1.413747 -3.743657 57.965772 2.514110 12.383514 -12.774776 21.435950 -2.445178 1.704881 -0.222157 -4.423025 
0.344692 0.801097 1.002579 84.830834 3.056763 85.180986 5.574541 1.455740 8.667773 -3.474071 -15.172823 1.400384 3.153210 7.744690 -16.845964 0.000000 -0.000000 0.000000 -0.066692 -2.221597 6.351162 4.839332 6.370512 3.533295 4.563791 -2.347325 -6.610259 0.000000 -0.000000 0.000000 -1.570071 -0.241894 4.669131 1.255037 -3.536811 2.452468 -0.051688 -3.158191 4.697101 5.806987 -10.434788 -7.386543 4.320112 -15.940489 -0.764145 -29.314673 6.494839 1.015957 -55.374763 -6.501481 5.113342 14.472156 -22.070159 -5.279059 4.272461 -3.993870 -10.792539 26.972630 -1.333478 -3.742524 58.012418 2.860433 12.248782 -12.839826 21.525848 -2.577542 2.062767 -0.249270 -4.489274 
0.344631 0.801534 1.002610 84.970079 3.040595 85.072551 5.498288 1.447538 8.738859 -3.405503 -15.170471 1.431959 3.002521 7.567883 -16.845679 0.000000 -0.000000 0.000000 -0.201519 -2.542106 6.297573 5.136917 5.362928 3.345338 4.531418 -2.360770 -7.122676 0.000000 -0.000000 0.000000 -1.491391 -0.185545 4.820757 1.208837 -3.527323 2.557198 -0.034039 -3.237072 4.716671 5.801495 -10.168785 -7.608762 4.156808 -15.729574 -0.368416 -29.397626 6.375880 0.884587 -55.565214 -6.675352 5.240359 14.566026 -22.288948 -5.470018 4.411486 -4.119117 -10.845112 27.049278 -1.170557 -3.820390 57.957271 3.111596 12.253553 -12.663432 21.710568 -2.726207 1.942513 -0.218146 -4.511017 
0.344697 0.802014 1.002726 85.057796 3.049353 85.103861 5.501567 1.490639 8.738309 -3.404847 -15.330975 1.411127 3.063781 7.539472 -16.934474 0.000000 -0.000000 0.000000 -0.169928 -2.443882 6.275579 4.912965 6.064540 3.904991 4.659898 -2.285921 -6.547191 0.000000 -0.000000 0.000000 -1.407222 -0.184195 4.786838 1.212027 -3.469496 2.613952 -0.062861 -3.189512 4.739068 5.818312 -9.583565 -7.919648 4.075339 -15.174968 -0.301154 -29.526438 6.201629 0.885486 -55.663776 -6.777097 5.342900 14.409776 -22.676439 -5.064858 4.689090 -4.172080 -10.660614 27.173419 -1.194180 -3.726293 57.947663 3.250999 12.336891 -12.629996 22.312189 -2.769410 1.915246 -0.068591 -4.639760 
0.344857 0.802502 1.002397 85.143824 2.978093 85.226310 5.367109 1.369098 8.692860 -3.367747 -15.253428 1.230587 3.146640 7.571792 -16.899472 0.000000 -0.000000 0.000000 -0.233381 -2.292338 6.265296 4.768009 6.288343 3.716022 4.691091 -2.293882 -6.728814 0.000000 -0.000000 0.000000 -1.447685 -0.070291 4.565578 1.221968 -3.467876 2.779703 -0.052778 -3.143159 4.816659 5.798945 -9.086760 -8.006029 4.011306 -14.755845 -0.435475 -29.610708 6.112867 0.788811 -55.981414 -6.917626 5.535547 14.262102 -22.679521 -5.280552 4.649463 -4.309460 -10.939963 27.226095 -1.031260 -3.686520 58.013690 3.373168 12.603376 -12.779750 22.347915 -2.873330 1.855551 -0.055438 -4.694759 
